{
DisplayStrings = (
H,
B,
P,
G,
F,
T,
M,
I,
1,
C,
L,
K,
"+",
"-",
D
);
date = "2014-05-06 08:44:46 +0000";
familyName = "DurexIcons";
featurePrefixes = (
{
automatic = 1;
code = "languagesystem DFLT dflt;\012languagesystem latn dflt;\012";
name = Languagesystems;
}
);
fontMaster = (
{
ascender = 800;
capHeight = 700;
descender = "-200";
id = "B01CEB06-3497-4938-B984-CE672714131B";
xHeight = 500;
}
);
glyphs = (
{
glyphname = A;
lastChange = "2014-06-02 15:23:19 +0100";
layers = (
{
layerId = "B01CEB06-3497-4938-B984-CE672714131B";
name = Regular;
paths = (
{
closed = 1;
nodes = (
"201 453 LINE",
"201 251 LINE",
"0 251 LINE",
"0 453 LINE"
);
},
{
closed = 1;
nodes = (
"201 799 LINE",
"201 597 LINE",
"0 597 LINE",
"0 799 LINE"
);
},
{
closed = 1;
nodes = (
"201 107 LINE",
"201 -95 LINE",
"0 -95 LINE",
"0 107 LINE"
);
},
{
closed = 1;
nodes = (
"548 597 LINE",
"346 597 LINE",
"346 799 LINE",
"548 799 LINE"
);
},
{
closed = 1;
nodes = (
"894 597 LINE",
"692 597 LINE",
"692 799 LINE",
"894 799 LINE"
);
},
{
closed = 1;
nodes = (
"548 251 LINE",
"346 251 LINE",
"346 453 LINE",
"548 453 LINE"
);
},
{
closed = 1;
nodes = (
"894 251 LINE",
"692 251 LINE",
"692 453 LINE",
"894 453 LINE"
);
},
{
closed = 1;
nodes = (
"548 -95 LINE",
"346 -95 LINE",
"346 107 LINE",
"548 107 LINE"
);
},
{
closed = 1;
nodes = (
"894 -95 LINE",
"692 -95 LINE",
"692 107 LINE",
"894 107 LINE"
);
}
);
width = 894;
}
);
unicode = 0041;
},
{
glyphname = B;
lastChange = "2014-06-02 09:59:45 +0100";
layers = (
{
layerId = "B01CEB06-3497-4938-B984-CE672714131B";
name = Regular;
paths = (
{
closed = 1;
nodes = (
"786 170 LINE",
"786 49 LINE",
"0 49 LINE",
"0 170 LINE"
);
},
{
closed = 1;
nodes = (
"786 411 LINE",
"786 290 LINE",
"0 290 LINE",
"0 411 LINE"
);
},
{
closed = 1;
nodes = (
"786 652 LINE",
"786 532 LINE",
"0 532 LINE",
"0 652 LINE"
);
}
);
width = 786;
}
);
unicode = 0042;
},
{
glyphname = C;
lastChange = "2014-06-03 09:44:32 +0100";
layers = (
{
layerId = "B01CEB06-3497-4938-B984-CE672714131B";
name = Regular;
paths = (
{
closed = 1;
nodes = (
"647 801 LINE",
"365 518 LINE",
"83 801 LINE",
"0 718 LINE",
"282 437 LINE",
"0 155 LINE",
"83 72 LINE",
"365 354 LINE",
"647 72 LINE",
"730 155 LINE",
"448 437 LINE",
"730 718 LINE"
);
}
);
width = 730;
}
);
unicode = 0043;
},
{
glyphname = D;
lastChange = "2014-06-02 15:23:35 +0100";
layers = (
{
layerId = "B01CEB06-3497-4938-B984-CE672714131B";
name = Regular;
paths = (
{
closed = 1;
nodes = (
"364 649 OFFCURVE",
"157 609 OFFCURVE",
"155 411 CURVE SMOOTH",
"154 303 OFFCURVE",
"253 262 OFFCURVE",
"321 218 CURVE SMOOTH",
"384 176 OFFCURVE",
"430 119 OFFCURVE",
"437 94 CURVE",
"444 119 OFFCURVE",
"494 177 OFFCURVE",
"553 219 CURVE SMOOTH",
"619 266 OFFCURVE",
"720 304 OFFCURVE",
"718 412 CURVE SMOOTH",
"717 610 OFFCURVE",
"507 642 OFFCURVE",
"437 478 CURVE"
);
},
{
closed = 1;
nodes = (
"827 26 LINE",
"827 91 LINE",
"773 91 LINE",
"773 26 LINE",
"708 26 LINE",
"708 -28 LINE",
"773 -28 LINE",
"773 -92 LINE",
"827 -92 LINE",
"827 -28 LINE",
"891 -28 LINE",
"891 26 LINE"
);
},
{
closed = 1;
nodes = (
"54 -37 LINE",
"54 745 LINE",
"837 745 LINE",
"837 144 LINE",
"890 144 LINE",
"890 799 LINE",
"0 799 LINE",
"0 -91 LINE",
"654 -91 LINE",
"654 -37 LINE"
);
}
);
width = 891;
}
);
unicode = 0044;
},
{
glyphname = E;
lastChange = "2014-06-02 09:59:07 +0100";
layers = (
{
layerId = "B01CEB06-3497-4938-B984-CE672714131B";
name = Regular;
paths = (
{
closed = 1;
nodes = (
"797 637 LINE",
"375 637 LINE",
"265 760 LINE",
"0 760 LINE",
"0 637 LINE",
"0 163 LINE",
"88 494 LINE",
"797 494 LINE",
"797 457 LINE"
);
},
{
closed = 1;
nodes = (
"6 -53 LINE",
"795 -53 LINE",
"928 428 LINE",
"138 428 LINE"
);
}
);
width = 928;
}
);
unicode = 0045;
},
{
glyphname = F;
lastChange = "2014-05-09 05:31:47 +0100";
layers = (
{
layerId = "B01CEB06-3497-4938-B984-CE672714131B";
name = Regular;
paths = (
{
closed = 1;
nodes = (
"223 -191 LINE",
"223 302 LINE",
"100 302 LINE",
"100 472 LINE",
"223 472 LINE",
"223 572 LINE SMOOTH",
"223 711 OFFCURVE",
"260 796 OFFCURVE",
"423 796 CURVE SMOOTH",
"560 796 LINE",
"560 626 LINE",
"474 626 LINE SMOOTH",
"411 626 OFFCURVE",
"408 601 OFFCURVE",
"408 557 CURVE SMOOTH",
"408 472 LINE",
"561 472 LINE",
"543 302 LINE",
"408 302 LINE",
"408 -191 LINE"
);
}
);
width = 661;
}
);
unicode = 0046;
},
{
glyphname = G;
lastChange = "2014-06-03 08:59:07 +0100";
layers = (
{
layerId = "B01CEB06-3497-4938-B984-CE672714131B";
name = Regular;
paths = (
{
closed = 1;
nodes = (
"55 469 OFFCURVE",
"84 409 OFFCURVE",
"141 373 CURVE SMOOTH",
"187 344 OFFCURVE",
"241 340 OFFCURVE",
"269 340 CURVE SMOOTH",
"276 340 OFFCURVE",
"281 340 OFFCURVE",
"285 341 CURVE",
"285 341 OFFCURVE",
"276 284 OFFCURVE",
"319 229 CURVE",
"317 229 LINE SMOOTH",
"243 229 OFFCURVE",
"0 214 OFFCURVE",
"0 20 CURVE SMOOTH",
"0 -177 OFFCURVE",
"223 -187 OFFCURVE",
"268 -187 CURVE SMOOTH",
"271 -187 OFFCURVE",
"273 -187 OFFCURVE",
"273 -187 CURVE",
"274 -187 OFFCURVE",
"277 -187 OFFCURVE",
"282 -187 CURVE SMOOTH",
"311 -187 OFFCURVE",
"385 -184 OFFCURVE",
"454 -151 CURVE SMOOTH",
"543 -109 OFFCURVE",
"589 -36 OFFCURVE",
"589 67 CURVE SMOOTH",
"589 165 OFFCURVE",
"520 224 OFFCURVE",
"469 267 CURVE SMOOTH",
"438 293 OFFCURVE",
"412 316 OFFCURVE",
"412 338 CURVE SMOOTH",
"412 361 OFFCURVE",
"431 377 OFFCURVE",
"456 399 CURVE SMOOTH",
"495 433 OFFCURVE",
"533 482 OFFCURVE",
"533 575 CURVE SMOOTH",
"533 657 OFFCURVE",
"522 712 OFFCURVE",
"455 746 CURVE",
"462 750 OFFCURVE",
"487 752 OFFCURVE",
"499 754 CURVE SMOOTH",
"535 759 OFFCURVE",
"589 764 OFFCURVE",
"589 793 CURVE SMOOTH",
"589 799 LINE",
"323 799 LINE SMOOTH",
"321 799 OFFCURVE",
"55 789 OFFCURVE",
"55 553 CURVE SMOOTH"
);
},
{
closed = 1;
nodes = (
"488 -31 OFFCURVE",
"419 -89 OFFCURVE",
"315 -96 CURVE SMOOTH",
"209 -104 OFFCURVE",
"122 -57 OFFCURVE",
"117 21 CURVE SMOOTH",
"114 59 OFFCURVE",
"132 96 OFFCURVE",
"165 126 CURVE SMOOTH",
"199 156 OFFCURVE",
"246 174 OFFCURVE",
"296 178 CURVE SMOOTH",
"302 178 OFFCURVE",
"308 178 OFFCURVE",
"314 178 CURVE SMOOTH",
"412 178 OFFCURVE",
"478 122 OFFCURVE",
"483 48 CURVE SMOOTH"
);
},
{
closed = 1;
nodes = (
"440 518 OFFCURVE",
"401 425 OFFCURVE",
"338 408 CURVE SMOOTH",
"331 406 OFFCURVE",
"324 405 OFFCURVE",
"316 405 CURVE SMOOTH",
"259 405 OFFCURVE",
"202 461 OFFCURVE",
"181 539 CURVE SMOOTH",
"169 583 OFFCURVE",
"170 621 OFFCURVE",
"183 657 CURVE SMOOTH",
"197 693 OFFCURVE",
"221 718 OFFCURVE",
"250 726 CURVE SMOOTH",
"258 728 OFFCURVE",
"265 729 OFFCURVE",
"273 729 CURVE SMOOTH",
"342 729 OFFCURVE",
"386 701 OFFCURVE",
"414 607 CURVE SMOOTH"
);
},
{
closed = 1;
nodes = (
"861 581 LINE",
"751 581 LINE",
"751 413 LINE",
"578 413 LINE",
"578 307 LINE",
"751 307 LINE",
"751 139 LINE",
"861 139 LINE",
"861 307 LINE",
"1034 307 LINE",
"1034 413 LINE",
"861 413 LINE"
);
}
);
width = 1034;
}
);
unicode = 0047;
},
{
glyphname = H;
lastChange = "2014-06-02 15:24:02 +0100";
layers = (
{
layerId = "B01CEB06-3497-4938-B984-CE672714131B";
name = Regular;
paths = (
{
closed = 1;
nodes = (
"224 711 LINE",
"256 711 OFFCURVE",
"288 700 OFFCURVE",
"316 680 CURVE SMOOTH",
"350 655 OFFCURVE",
"379 617 OFFCURVE",
"399 569 CURVE SMOOTH",
"414 535 OFFCURVE",
"447 514 OFFCURVE",
"483 514 CURVE SMOOTH",
"483 514 OFFCURVE",
"483 514 OFFCURVE",
"483 514 CURVE SMOOTH",
"519 514 OFFCURVE",
"552 535 OFFCURVE",
"566 569 CURVE SMOOTH",
"586 615 OFFCURVE",
"614 652 OFFCURVE",
"648 675 CURVE SMOOTH",
"677 696 OFFCURVE",
"710 707 OFFCURVE",
"743 707 CURVE SMOOTH",
"785 707 OFFCURVE",
"824 689 OFFCURVE",
"853 657 CURVE SMOOTH",
"890 616 OFFCURVE",
"910 556 OFFCURVE",
"910 483 CURVE SMOOTH",
"910 473 OFFCURVE",
"907 452 OFFCURVE",
"884 415 CURVE SMOOTH",
"865 383 OFFCURVE",
"835 346 OFFCURVE",
"797 306 CURVE SMOOTH",
"722 227 OFFCURVE",
"627 149 OFFCURVE",
"551 86 CURVE SMOOTH",
"526 66 OFFCURVE",
"504 47 OFFCURVE",
"485 31 CURVE",
"462 51 OFFCURVE",
"434 74 OFFCURVE",
"402 100 CURVE SMOOTH",
"328 161 OFFCURVE",
"235 237 OFFCURVE",
"163 312 CURVE SMOOTH",
"126 351 OFFCURVE",
"99 386 OFFCURVE",
"80 416 CURVE SMOOTH",
"59 451 OFFCURVE",
"56 472 OFFCURVE",
"56 481 CURVE SMOOTH",
"56 520 OFFCURVE",
"62 557 OFFCURVE",
"73 589 CURVE SMOOTH",
"83 616 OFFCURVE",
"97 640 OFFCURVE",
"114 659 CURVE SMOOTH",
"143 692 OFFCURVE",
"182 711 OFFCURVE",
"224 711 CURVE",
"224 802 LINE"
);
},
{
closed = 1;
nodes = (
"92 802 OFFCURVE",
"-33 689 OFFCURVE",
"-35 481 CURVE SMOOTH",
"-36 272 OFFCURVE",
"465 -35 OFFCURVE",
"484 -100 CURVE",
"497 -47 OFFCURVE",
"1002 275 OFFCURVE",
"1001 483 CURVE SMOOTH",
"999 690 OFFCURVE",
"874 797 OFFCURVE",
"743 797 CURVE SMOOTH",
"642 797 OFFCURVE",
"538 735 OFFCURVE",
"483 604 CURVE",
"426 738 OFFCURVE",
"323 802 OFFCURVE",
"224 802 CURVE SMOOTH"
);
}
);
width = 966.002;
}
);
unicode = 0048;
},
{
glyphname = I;
lastChange = "2014-06-02 09:58:32 +0100";
layers = (
{
layerId = "B01CEB06-3497-4938-B984-CE672714131B";
name = Regular;
paths = (
{
closed = 1;
nodes = (
"334 524 LINE",
"222 524 LINE",
"445 302 LINE",
"668 524 LINE",
"556 524 LINE",
"556 697 LINE",
"334 697 LINE"
);
},
{
closed = 1;
nodes = (
"0 7 LINE",
"890 7 LINE",
"890 362 LINE",
"779 362 LINE",
"779 118 LINE",
"111 118 LINE",
"111 362 LINE",
"0 362 LINE"
);
}
);
width = 890;
}
);
unicode = 0049;
},
{
glyphname = J;
lastChange = "2014-06-02 09:58:53 +0100";
layers = (
{
layerId = "B01CEB06-3497-4938-B984-CE672714131B";
name = Regular;
paths = (
{
closed = 1;
nodes = (
"198 792 OFFCURVE",
"0 593 OFFCURVE",
"0 348 CURVE SMOOTH",
"0 105 OFFCURVE",
"198 -94 OFFCURVE",
"442 -94 CURVE SMOOTH",
"686 -94 OFFCURVE",
"884 105 OFFCURVE",
"884 348 CURVE SMOOTH",
"884 593 OFFCURVE",
"686 792 OFFCURVE",
"442 792 CURVE SMOOTH"
);
},
{
closed = 1;
nodes = (
"382 198 LINE SMOOTH",
"366 187 OFFCURVE",
"353 195 OFFCURVE",
"353 215 CURVE SMOOTH",
"353 483 LINE SMOOTH",
"353 503 OFFCURVE",
"366 511 OFFCURVE",
"382 500 CURVE SMOOTH",
"604 362 LINE",
"604 362 OFFCURVE",
"612 356 OFFCURVE",
"612 348 CURVE SMOOTH",
"612 342 OFFCURVE",
"604 335 OFFCURVE",
"604 335 CURVE"
);
}
);
width = 884;
}
);
unicode = 004A;
},
{
glyphname = K;
lastChange = "2014-06-02 15:23:54 +0100";
layers = (
{
layerId = "B01CEB06-3497-4938-B984-CE672714131B";
name = Regular;
paths = (
{
closed = 1;
nodes = (
"684 388 OFFCURVE",
"662 389 OFFCURVE",
"648 375 CURVE SMOOTH",
"642 370 LINE",
"638 375 LINE SMOOTH",
"624 390 OFFCURVE",
"601 390 OFFCURVE",
"587 376 CURVE SMOOTH",
"573 363 OFFCURVE",
"572 340 OFFCURVE",
"586 326 CURVE SMOOTH",
"601 310 LINE",
"601 310 LINE",
"606 306 LINE",
"616 295 LINE SMOOTH",
"616 294 OFFCURVE",
"617 294 OFFCURVE",
"618 293 CURVE",
"639 272 LINE",
"639 272 OFFCURVE",
"640 271 OFFCURVE",
"640 271 CURVE SMOOTH",
"641 271 OFFCURVE",
"642 272 OFFCURVE",
"642 272 CURVE",
"663 291 LINE",
"664 292 OFFCURVE",
"665 293 OFFCURVE",
"666 294 CURVE SMOOTH",
"697 324 LINE SMOOTH",
"711 337 OFFCURVE",
"712 360 OFFCURVE",
"698 374 CURVE SMOOTH"
);
},
{
closed = 1;
nodes = (
"375 495 OFFCURVE",
"352 495 OFFCURVE",
"338 481 CURVE SMOOTH",
"333 476 LINE",
"328 481 LINE SMOOTH",
"314 495 OFFCURVE",
"292 496 OFFCURVE",
"278 482 CURVE SMOOTH",
"264 468 OFFCURVE",
"263 446 OFFCURVE",
"277 431 CURVE SMOOTH",
"292 416 LINE",
"292 416 LINE",
"297 411 LINE",
"307 401 LINE SMOOTH",
"308 400 OFFCURVE",
"309 399 OFFCURVE",
"309 399 CURVE",
"330 378 LINE",
"330 378 OFFCURVE",
"331 377 OFFCURVE",
"332 377 CURVE SMOOTH",
"333 377 OFFCURVE",
"334 378 OFFCURVE",
"334 378 CURVE",
"354 398 LINE",
"356 399 OFFCURVE",
"357 399 OFFCURVE",
"358 400 CURVE SMOOTH",
"388 430 LINE SMOOTH",
"402 444 OFFCURVE",
"402 467 OFFCURVE",
"389 481 CURVE SMOOTH"
);
},
{
closed = 1;
nodes = (
"215 617 OFFCURVE",
"206 614 OFFCURVE",
"199 607 CURVE SMOOTH",
"185 593 OFFCURVE",
"185 570 OFFCURVE",
"198 556 CURVE SMOOTH",
"213 541 LINE",
"213 541 LINE",
"218 536 LINE",
"228 526 LINE SMOOTH",
"229 525 OFFCURVE",
"230 524 OFFCURVE",
"231 523 CURVE",
"251 503 LINE",
"251 503 OFFCURVE",
"252 502 OFFCURVE",
"253 502 CURVE",
"253 502 OFFCURVE",
"253 502 OFFCURVE",
"253 502 CURVE",
"254 502 OFFCURVE",
"255 503 OFFCURVE",
"255 503 CURVE",
"276 523 LINE",
"277 523 OFFCURVE",
"278 524 OFFCURVE",
"279 525 CURVE SMOOTH",
"309 555 LINE SMOOTH",
"323 569 OFFCURVE",
"324 591 OFFCURVE",
"310 606 CURVE SMOOTH",
"303 613 OFFCURVE",
"294 616 OFFCURVE",
"284 616 CURVE SMOOTH",
"275 616 OFFCURVE",
"266 613 OFFCURVE",
"259 606 CURVE SMOOTH",
"254 601 LINE",
"249 606 LINE SMOOTH",
"242 613 OFFCURVE",
"233 617 OFFCURVE",
"224 617 CURVE SMOOTH"
);
},
{
closed = 1;
nodes = (
"372 308 OFFCURVE",
"350 308 OFFCURVE",
"336 294 CURVE SMOOTH",
"331 289 LINE",
"326 294 LINE SMOOTH",
"312 308 OFFCURVE",
"289 308 OFFCURVE",
"275 295 CURVE SMOOTH",
"261 281 OFFCURVE",
"261 258 OFFCURVE",
"275 244 CURVE SMOOTH",
"290 229 LINE",
"290 229 LINE",
"294 224 LINE",
"305 214 LINE SMOOTH",
"305 213 OFFCURVE",
"306 212 OFFCURVE",
"307 211 CURVE",
"328 191 LINE",
"328 191 OFFCURVE",
"329 189 OFFCURVE",
"330 189 CURVE SMOOTH",
"330 189 OFFCURVE",
"332 191 OFFCURVE",
"332 191 CURVE",
"352 210 LINE",
"353 211 OFFCURVE",
"354 212 OFFCURVE",
"355 213 CURVE SMOOTH",
"386 243 LINE SMOOTH",
"400 257 OFFCURVE",
"400 279 OFFCURVE",
"386 293 CURVE SMOOTH"
);
},
{
closed = 1;
nodes = (
"402 395 OFFCURVE",
"393 391 OFFCURVE",
"386 384 CURVE SMOOTH",
"372 371 OFFCURVE",
"372 348 OFFCURVE",
"385 334 CURVE SMOOTH",
"400 318 LINE",
"400 318 LINE",
"405 314 LINE",
"415 303 LINE SMOOTH",
"416 303 OFFCURVE",
"417 302 OFFCURVE",
"418 301 CURVE",
"438 280 LINE",
"438 280 OFFCURVE",
"439 279 OFFCURVE",
"440 279 CURVE",
"440 279 OFFCURVE",
"440 279 OFFCURVE",
"440 279 CURVE",
"441 279 OFFCURVE",
"442 280 OFFCURVE",
"442 280 CURVE",
"463 300 LINE",
"464 301 OFFCURVE",
"465 302 OFFCURVE",
"466 303 CURVE SMOOTH",
"496 333 LINE SMOOTH",
"510 346 OFFCURVE",
"511 369 OFFCURVE",
"497 383 CURVE SMOOTH",
"490 390 OFFCURVE",
"481 394 OFFCURVE",
"471 394 CURVE SMOOTH",
"462 394 OFFCURVE",
"453 390 OFFCURVE",
"446 384 CURVE SMOOTH",
"441 379 LINE",
"436 384 LINE SMOOTH",
"429 391 OFFCURVE",
"420 395 OFFCURVE",
"411 395 CURVE SMOOTH"
);
},
{
closed = 1;
nodes = (
"506 302 OFFCURVE",
"497 299 OFFCURVE",
"490 292 CURVE SMOOTH",
"476 278 OFFCURVE",
"475 256 OFFCURVE",
"489 241 CURVE SMOOTH",
"504 226 LINE",
"504 226 LINE",
"509 221 LINE",
"519 211 LINE SMOOTH",
"520 210 OFFCURVE",
"521 209 OFFCURVE",
"522 209 CURVE",
"542 188 LINE",
"542 188 OFFCURVE",
"543 187 OFFCURVE",
"544 187 CURVE",
"544 187 OFFCURVE",
"544 187 OFFCURVE",
"544 187 CURVE",
"545 187 OFFCURVE",
"546 188 OFFCURVE",
"546 188 CURVE",
"567 208 LINE",
"568 209 OFFCURVE",
"569 209 OFFCURVE",
"570 210 CURVE SMOOTH",
"600 240 LINE SMOOTH",
"614 254 OFFCURVE",
"615 277 OFFCURVE",
"601 291 CURVE SMOOTH",
"594 298 OFFCURVE",
"584 301 OFFCURVE",
"575 301 CURVE SMOOTH",
"566 301 OFFCURVE",
"557 298 OFFCURVE",
"550 291 CURVE SMOOTH",
"545 286 LINE",
"540 291 LINE SMOOTH",
"533 299 OFFCURVE",
"524 302 OFFCURVE",
"515 302 CURVE SMOOTH"
);
},
{
closed = 1;
nodes = (
"507 488 OFFCURVE",
"498 485 OFFCURVE",
"491 478 CURVE SMOOTH",
"477 464 OFFCURVE",
"477 442 OFFCURVE",
"491 428 CURVE SMOOTH",
"506 412 LINE",
"506 412 LINE",
"510 407 LINE",
"520 397 LINE SMOOTH",
"521 396 OFFCURVE",
"522 395 OFFCURVE",
"523 395 CURVE",
"544 374 LINE",
"544 374 OFFCURVE",
"545 373 OFFCURVE",
"545 373 CURVE",
"545 373 OFFCURVE",
"545 373 OFFCURVE",
"545 373 CURVE",
"546 373 OFFCURVE",
"548 374 OFFCURVE",
"548 374 CURVE",
"568 394 LINE",
"569 395 OFFCURVE",
"570 396 OFFCURVE",
"571 396 CURVE SMOOTH",
"601 426 LINE SMOOTH",
"616 440 OFFCURVE",
"616 463 OFFCURVE",
"602 477 CURVE SMOOTH",
"595 484 OFFCURVE",
"586 488 OFFCURVE",
"576 488 CURVE SMOOTH",
"567 488 OFFCURVE",
"558 484 OFFCURVE",
"552 477 CURVE SMOOTH",
"546 473 LINE",
"542 478 LINE SMOOTH",
"535 485 OFFCURVE",
"525 488 OFFCURVE",
"516 488 CURVE SMOOTH"
);
},
{
closed = 1;
nodes = (
"682 494 OFFCURVE",
"673 490 OFFCURVE",
"666 484 CURVE SMOOTH",
"652 470 OFFCURVE",
"652 447 OFFCURVE",
"665 433 CURVE SMOOTH",
"680 418 LINE",
"680 418 LINE",
"685 413 LINE",
"695 403 LINE SMOOTH",
"696 402 OFFCURVE",
"697 401 OFFCURVE",
"698 400 CURVE",
"718 380 LINE",
"718 380 OFFCURVE",
"719 378 OFFCURVE",
"720 378 CURVE",
"720 378 OFFCURVE",
"720 378 OFFCURVE",
"720 378 CURVE",
"721 378 OFFCURVE",
"722 380 OFFCURVE",
"722 380 CURVE",
"743 399 LINE",
"744 400 OFFCURVE",
"745 401 OFFCURVE",
"746 402 CURVE SMOOTH",
"776 432 LINE SMOOTH",
"790 446 OFFCURVE",
"791 468 OFFCURVE",
"777 482 CURVE SMOOTH",
"770 490 OFFCURVE",
"761 493 OFFCURVE",
"751 493 CURVE SMOOTH",
"742 493 OFFCURVE",
"733 490 OFFCURVE",
"726 483 CURVE SMOOTH",
"721 478 LINE",
"716 483 LINE SMOOTH",
"709 490 OFFCURVE",
"700 494 OFFCURVE",
"691 494 CURVE SMOOTH"
);
},
{
closed = 1;
nodes = (
"673 615 OFFCURVE",
"650 615 OFFCURVE",
"636 601 CURVE SMOOTH",
"631 596 LINE",
"626 601 LINE SMOOTH",
"612 615 OFFCURVE",
"590 616 OFFCURVE",
"575 602 CURVE SMOOTH",
"561 588 OFFCURVE",
"561 565 OFFCURVE",
"575 551 CURVE SMOOTH",
"590 536 LINE",
"590 536 LINE",
"595 531 LINE",
"605 521 LINE SMOOTH",
"606 520 OFFCURVE",
"606 519 OFFCURVE",
"607 518 CURVE",
"628 498 LINE",
"628 498 OFFCURVE",
"629 497 OFFCURVE",
"630 497 CURVE SMOOTH",
"631 497 OFFCURVE",
"632 498 OFFCURVE",
"632 498 CURVE",
"652 518 LINE",
"653 518 OFFCURVE",
"654 519 OFFCURVE",
"655 520 CURVE SMOOTH",
"686 550 LINE SMOOTH",
"700 564 OFFCURVE",
"700 586 OFFCURVE",
"686 601 CURVE SMOOTH"
);
},
{
closed = 1;
nodes = (
"709 554 OFFCURVE",
"704 552 OFFCURVE",
"701 549 CURVE SMOOTH",
"695 543 OFFCURVE",
"695 532 OFFCURVE",
"701 526 CURVE SMOOTH",
"708 519 LINE",
"708 519 LINE",
"710 516 LINE",
"715 512 LINE SMOOTH",
"715 511 OFFCURVE",
"716 511 OFFCURVE",
"716 511 CURVE",
"725 501 LINE",
"725 501 OFFCURVE",
"726 501 OFFCURVE",
"726 501 CURVE",
"726 501 OFFCURVE",
"726 501 OFFCURVE",
"726 501 CURVE",
"727 501 OFFCURVE",
"727 501 OFFCURVE",
"727 501 CURVE",
"737 510 LINE",
"737 511 OFFCURVE",
"738 511 OFFCURVE",
"738 511 CURVE SMOOTH",
"752 525 LINE SMOOTH",
"759 531 OFFCURVE",
"759 542 OFFCURVE",
"752 548 CURVE SMOOTH",
"749 552 OFFCURVE",
"745 553 OFFCURVE",
"741 553 CURVE SMOOTH",
"736 553 OFFCURVE",
"732 552 OFFCURVE",
"729 549 CURVE SMOOTH",
"727 546 LINE",
"724 549 LINE SMOOTH",
"721 552 OFFCURVE",
"717 554 OFFCURVE",
"713 554 CURVE SMOOTH"
);
},
{
closed = 1;
nodes = (
"382 557 OFFCURVE",
"371 557 OFFCURVE",
"365 550 CURVE SMOOTH",
"362 548 LINE",
"360 550 LINE SMOOTH",
"353 557 OFFCURVE",
"343 557 OFFCURVE",
"336 551 CURVE SMOOTH",
"330 544 OFFCURVE",
"330 534 OFFCURVE",
"336 527 CURVE SMOOTH",
"343 520 LINE",
"343 520 LINE",
"345 518 LINE",
"350 513 LINE SMOOTH",
"350 513 OFFCURVE",
"351 513 OFFCURVE",
"351 512 CURVE",
"361 503 LINE",
"361 503 OFFCURVE",
"361 502 OFFCURVE",
"362 502 CURVE SMOOTH",
"362 502 OFFCURVE",
"363 503 OFFCURVE",
"363 503 CURVE",
"372 512 LINE",
"373 512 OFFCURVE",
"373 512 OFFCURVE",
"374 513 CURVE SMOOTH",
"388 527 LINE SMOOTH",
"394 533 OFFCURVE",
"394 543 OFFCURVE",
"388 550 CURVE SMOOTH"
);
},
{
closed = 1;
nodes = (
"458 146 OFFCURVE",
"447 146 OFFCURVE",
"441 140 CURVE SMOOTH",
"438 137 LINE",
"436 140 LINE SMOOTH",
"430 146 OFFCURVE",
"419 146 OFFCURVE",
"413 140 CURVE SMOOTH",
"406 134 OFFCURVE",
"406 123 OFFCURVE",
"412 117 CURVE SMOOTH",
"419 110 LINE",
"419 110 LINE",
"422 107 LINE",
"426 103 LINE SMOOTH",
"427 102 OFFCURVE",
"427 102 OFFCURVE",
"427 102 CURVE",
"437 92 LINE",
"437 92 OFFCURVE",
"438 91 OFFCURVE",
"438 91 CURVE SMOOTH",
"438 91 OFFCURVE",
"439 92 OFFCURVE",
"439 92 CURVE",
"448 101 LINE",
"449 101 OFFCURVE",
"449 102 OFFCURVE",
"450 102 CURVE SMOOTH",
"464 116 LINE SMOOTH",
"471 122 OFFCURVE",
"471 133 OFFCURVE",
"464 139 CURVE SMOOTH"
);
},
{
closed = 1;
nodes = (
"474 237 OFFCURVE",
"460 237 OFFCURVE",
"452 228 CURVE SMOOTH",
"449 226 LINE",
"446 229 LINE SMOOTH",
"437 237 OFFCURVE",
"424 237 OFFCURVE",
"415 229 CURVE SMOOTH",
"407 221 OFFCURVE",
"406 207 OFFCURVE",
"415 198 CURVE SMOOTH",
"424 189 LINE",
"424 189 LINE",
"427 186 LINE",
"433 180 LINE SMOOTH",
"433 180 OFFCURVE",
"434 179 OFFCURVE",
"434 179 CURVE",
"447 166 LINE",
"447 166 OFFCURVE",
"447 165 OFFCURVE",
"448 165 CURVE SMOOTH",
"448 165 OFFCURVE",
"449 166 OFFCURVE",
"449 166 CURVE",
"461 178 LINE",
"462 179 OFFCURVE",
"463 179 OFFCURVE",
"463 180 CURVE SMOOTH",
"482 198 LINE SMOOTH",
"490 206 OFFCURVE",
"490 220 OFFCURVE",
"482 228 CURVE SMOOTH"
);
},
{
closed = 1;
nodes = (
"389 188 OFFCURVE",
"386 187 OFFCURVE",
"383 184 CURVE SMOOTH",
"381 182 LINE",
"379 184 LINE SMOOTH",
"376 186 OFFCURVE",
"373 188 OFFCURVE",
"370 188 CURVE SMOOTH",
"366 188 OFFCURVE",
"363 186 OFFCURVE",
"360 184 CURVE SMOOTH",
"355 178 OFFCURVE",
"355 170 OFFCURVE",
"360 164 CURVE SMOOTH",
"366 159 LINE",
"366 159 LINE",
"368 157 LINE",
"372 153 LINE SMOOTH",
"373 153 OFFCURVE",
"373 153 OFFCURVE",
"373 153 CURVE",
"381 145 LINE",
"381 145 OFFCURVE",
"382 145 OFFCURVE",
"382 145 CURVE",
"382 145 OFFCURVE",
"382 145 OFFCURVE",
"382 145 CURVE",
"383 145 OFFCURVE",
"383 145 OFFCURVE",
"383 145 CURVE",
"390 153 LINE",
"391 153 OFFCURVE",
"391 154 OFFCURVE",
"392 154 CURVE SMOOTH",
"403 166 LINE SMOOTH",
"408 171 OFFCURVE",
"408 179 OFFCURVE",
"402 185 CURVE SMOOTH",
"399 187 OFFCURVE",
"396 188 OFFCURVE",
"393 188 CURVE SMOOTH"
);
},
{
closed = 1;
nodes = (
"505 179 OFFCURVE",
"498 179 OFFCURVE",
"494 175 CURVE SMOOTH",
"493 173 LINE",
"491 175 LINE SMOOTH",
"487 179 OFFCURVE",
"480 179 OFFCURVE",
"476 174 CURVE SMOOTH",
"472 170 OFFCURVE",
"472 164 OFFCURVE",
"477 160 CURVE SMOOTH",
"481 155 LINE",
"481 155 LINE",
"483 154 LINE",
"486 151 LINE SMOOTH",
"486 151 OFFCURVE",
"486 151 OFFCURVE",
"486 150 CURVE",
"493 145 LINE",
"493 145 OFFCURVE",
"493 144 OFFCURVE",
"493 144 CURVE SMOOTH",
"494 144 OFFCURVE",
"494 145 OFFCURVE",
"494 145 CURVE",
"500 151 LINE",
"500 151 OFFCURVE",
"500 151 OFFCURVE",
"501 151 CURVE SMOOTH",
"509 160 LINE SMOOTH",
"513 165 OFFCURVE",
"513 171 OFFCURVE",
"509 175 CURVE SMOOTH"
);
},
{
closed = 1;
nodes = (
"168 569 OFFCURVE",
"159 569 OFFCURVE",
"153 563 CURVE SMOOTH",
"151 561 LINE",
"149 563 LINE SMOOTH",
"143 569 OFFCURVE",
"134 569 OFFCURVE",
"128 564 CURVE SMOOTH",
"122 558 OFFCURVE",
"122 548 OFFCURVE",
"128 542 CURVE SMOOTH",
"134 536 LINE",
"134 536 LINE",
"136 534 LINE",
"140 530 LINE SMOOTH",
"140 529 OFFCURVE",
"141 529 OFFCURVE",
"141 529 CURVE",
"150 520 LINE",
"150 520 OFFCURVE",
"150 519 OFFCURVE",
"151 519 CURVE",
"151 519 OFFCURVE",
"151 520 OFFCURVE",
"151 520 CURVE",
"160 528 LINE",
"160 529 OFFCURVE",
"161 529 OFFCURVE",
"161 529 CURVE SMOOTH",
"174 542 LINE SMOOTH",
"180 548 OFFCURVE",
"180 557 OFFCURVE",
"174 563 CURVE SMOOTH"
);
},
{
closed = 1;
nodes = (
"337 367 OFFCURVE",
"327 367 OFFCURVE",
"321 361 CURVE SMOOTH",
"319 359 LINE",
"317 361 LINE SMOOTH",
"311 367 OFFCURVE",
"302 367 OFFCURVE",
"296 361 CURVE SMOOTH",
"290 355 OFFCURVE",
"290 346 OFFCURVE",
"296 340 CURVE SMOOTH",
"302 334 LINE",
"302 334 LINE",
"304 332 LINE",
"308 327 LINE SMOOTH",
"308 327 OFFCURVE",
"309 327 OFFCURVE",
"309 326 CURVE",
"318 317 LINE",
"318 317 OFFCURVE",
"318 317 OFFCURVE",
"319 317 CURVE",
"319 317 OFFCURVE",
"319 318 OFFCURVE",
"319 318 CURVE",
"328 326 LINE",
"328 326 OFFCURVE",
"329 327 OFFCURVE",
"329 327 CURVE SMOOTH",
"342 339 LINE SMOOTH",
"348 345 OFFCURVE",
"348 355 OFFCURVE",
"342 361 CURVE SMOOTH"
);
},
{
closed = 1;
nodes = (
"205 384 OFFCURVE",
"199 381 OFFCURVE",
"194 376 CURVE SMOOTH",
"184 367 OFFCURVE",
"184 351 OFFCURVE",
"194 341 CURVE SMOOTH",
"204 331 LINE",
"204 331 LINE",
"207 328 LINE",
"214 320 LINE SMOOTH",
"215 320 OFFCURVE",
"215 319 OFFCURVE",
"216 319 CURVE",
"230 304 LINE",
"230 304 OFFCURVE",
"231 304 OFFCURVE",
"232 304 CURVE",
"232 304 OFFCURVE",
"232 304 OFFCURVE",
"232 304 CURVE",
"232 304 OFFCURVE",
"233 305 OFFCURVE",
"233 305 CURVE",
"247 318 LINE",
"248 319 OFFCURVE",
"249 319 OFFCURVE",
"249 320 CURVE SMOOTH",
"271 341 LINE SMOOTH",
"280 350 OFFCURVE",
"280 366 OFFCURVE",
"271 376 CURVE SMOOTH",
"266 381 OFFCURVE",
"260 383 OFFCURVE",
"253 383 CURVE SMOOTH",
"247 383 OFFCURVE",
"241 381 OFFCURVE",
"236 376 CURVE SMOOTH",
"232 373 LINE",
"229 376 LINE SMOOTH",
"224 381 OFFCURVE",
"218 384 OFFCURVE",
"211 384 CURVE SMOOTH"
);
},
{
closed = 1;
nodes = (
"554 547 OFFCURVE",
"545 547 OFFCURVE",
"539 541 CURVE SMOOTH",
"536 539 LINE",
"534 541 LINE SMOOTH",
"528 547 OFFCURVE",
"519 548 OFFCURVE",
"513 542 CURVE SMOOTH",
"507 536 OFFCURVE",
"507 526 OFFCURVE",
"512 520 CURVE SMOOTH",
"519 514 LINE",
"519 514 LINE",
"521 512 LINE",
"525 507 LINE SMOOTH",
"526 507 OFFCURVE",
"526 507 OFFCURVE",
"526 506 CURVE",
"535 498 LINE",
"535 498 OFFCURVE",
"536 497 OFFCURVE",
"536 497 CURVE",
"536 497 OFFCURVE",
"537 498 OFFCURVE",
"537 498 CURVE",
"545 506 LINE",
"546 506 OFFCURVE",
"546 507 OFFCURVE",
"547 507 CURVE SMOOTH",
"560 520 LINE SMOOTH",
"566 525 OFFCURVE",
"566 535 OFFCURVE",
"560 541 CURVE SMOOTH"
);
},
{
closed = 1;
nodes = (
"451 447 OFFCURVE",
"445 447 OFFCURVE",
"441 443 CURVE SMOOTH",
"440 442 LINE",
"438 443 LINE SMOOTH",
"435 447 OFFCURVE",
"429 447 OFFCURVE",
"425 444 CURVE SMOOTH",
"421 440 OFFCURVE",
"421 434 OFFCURVE",
"424 431 CURVE SMOOTH",
"428 426 LINE",
"428 426 LINE",
"429 425 LINE",
"432 422 LINE SMOOTH",
"432 422 OFFCURVE",
"433 422 OFFCURVE",
"433 422 CURVE",
"438 416 LINE",
"438 416 OFFCURVE",
"438 416 OFFCURVE",
"439 416 CURVE SMOOTH",
"439 416 OFFCURVE",
"439 416 OFFCURVE",
"439 416 CURVE",
"445 422 LINE",
"445 422 OFFCURVE",
"445 422 OFFCURVE",
"446 422 CURVE SMOOTH",
"454 430 LINE SMOOTH",
"458 434 OFFCURVE",
"458 440 OFFCURVE",
"455 443 CURVE SMOOTH"
);
},
{
closed = 1;
nodes = (
"229 507 OFFCURVE",
"207 507 OFFCURVE",
"193 493 CURVE SMOOTH",
"188 489 LINE",
"183 494 LINE SMOOTH",
"169 508 OFFCURVE",
"146 508 OFFCURVE",
"132 494 CURVE SMOOTH",
"118 480 OFFCURVE",
"118 458 OFFCURVE",
"132 444 CURVE SMOOTH",
"147 428 LINE",
"147 428 LINE",
"151 423 LINE",
"162 413 LINE SMOOTH",
"162 412 OFFCURVE",
"163 412 OFFCURVE",
"164 411 CURVE",
"185 390 LINE",
"185 390 OFFCURVE",
"186 389 OFFCURVE",
"187 389 CURVE SMOOTH",
"187 389 OFFCURVE",
"189 390 OFFCURVE",
"189 390 CURVE",
"209 410 LINE",
"210 411 OFFCURVE",
"211 412 OFFCURVE",
"212 413 CURVE SMOOTH",
"243 442 LINE SMOOTH",
"257 456 OFFCURVE",
"257 479 OFFCURVE",
"243 493 CURVE SMOOTH"
);
},
{
closed = 1;
nodes = (
"827 26 LINE",
"827 91 LINE",
"773 91 LINE",
"773 26 LINE",
"708 26 LINE",
"708 -28 LINE",
"773 -28 LINE",
"773 -93 LINE",
"827 -93 LINE",
"827 -28 LINE",
"892 -28 LINE",
"892 26 LINE"
);
},
{
closed = 1;
nodes = (
"53 -37 LINE",
"53 746 LINE",
"837 746 LINE",
"837 144 LINE",
"890 144 LINE",
"890 799 LINE",
"0 799 LINE",
"0 -91 LINE",
"654 -91 LINE",
"654 -37 LINE"
);
}
);
width = 892;
}
);
unicode = 004B;
},
{
glyphname = L;
lastChange = "2014-06-03 15:32:19 +0100";
layers = (
{
layerId = "B01CEB06-3497-4938-B984-CE672714131B";
name = Regular;
paths = (
{
closed = 1;
nodes = (
"544 242 OFFCURVE",
"515 230 OFFCURVE",
"492 209 CURVE",
"251 332 LINE",
"252 339 OFFCURVE",
"253 345 OFFCURVE",
"253 352 CURVE SMOOTH",
"253 355 OFFCURVE",
"252 359 OFFCURVE",
"252 362 CURVE",
"496 487 LINE",
"518 468 OFFCURVE",
"546 457 OFFCURVE",
"577 457 CURVE SMOOTH",
"647 457 OFFCURVE",
"703 513 OFFCURVE",
"703 583 CURVE SMOOTH",
"703 653 OFFCURVE",
"647 709 OFFCURVE",
"577 709 CURVE SMOOTH",
"507 709 OFFCURVE",
"451 653 OFFCURVE",
"451 583 CURVE SMOOTH",
"451 579 OFFCURVE",
"451 576 OFFCURVE",
"451 572 CURVE",
"208 448 LINE",
"186 466 OFFCURVE",
"157 478 OFFCURVE",
"126 478 CURVE SMOOTH",
"56 478 OFFCURVE",
"0 421 OFFCURVE",
"0 352 CURVE SMOOTH",
"0 282 OFFCURVE",
"56 225 OFFCURVE",
"126 225 CURVE SMOOTH",
"154 225 OFFCURVE",
"180 235 OFFCURVE",
"201 250 CURVE",
"451 123 LINE",
"451 120 OFFCURVE",
"451 118 OFFCURVE",
"451 116 CURVE SMOOTH",
"451 46 OFFCURVE",
"507 -10 OFFCURVE",
"577 -10 CURVE SMOOTH",
"647 -10 OFFCURVE",
"703 46 OFFCURVE",
"703 116 CURVE SMOOTH",
"703 186 OFFCURVE",
"647 242 OFFCURVE",
"577 242 CURVE SMOOTH"
);
}
);
width = 703;
}
);
unicode = 004C;
},
{
glyphname = M;
lastChange = "2014-06-03 09:02:04 +0100";
layers = (
{
layerId = "B01CEB06-3497-4938-B984-CE672714131B";
name = Regular;
paths = (
{
closed = 1;
nodes = (
"0 -4 LINE",
"932 -4 LINE",
"932 702 LINE",
"0 702 LINE"
);
},
{
closed = 1;
nodes = (
"115 643 LINE",
"811 643 LINE",
"463 342 LINE"
);
},
{
closed = 1;
nodes = (
"60 102 LINE",
"60 612 LINE",
"335 374 LINE"
);
},
{
closed = 1;
nodes = (
"463 264 LINE",
"545 335 LINE",
"830 55 LINE",
"97 55 LINE",
"380 335 LINE"
);
},
{
closed = 1;
nodes = (
"872 617 LINE",
"872 95 LINE",
"591 374 LINE"
);
}
);
width = 932;
}
);
unicode = 004D;
},
{
glyphname = P;
lastChange = "2014-06-03 10:31:58 +0100";
layers = (
{
layerId = "B01CEB06-3497-4938-B984-CE672714131B";
name = Regular;
paths = (
{
closed = 1;
nodes = (
"287 22 OFFCURVE",
"255 -106 OFFCURVE",
"163 -174 CURVE",
"135 29 OFFCURVE",
"205 181 OFFCURVE",
"237 343 CURVE",
"182 436 OFFCURVE",
"245 625 OFFCURVE",
"361 579 CURVE SMOOTH",
"507 520 OFFCURVE",
"236 230 OFFCURVE",
"418 193 CURVE SMOOTH",
"608 156 OFFCURVE",
"685 520 OFFCURVE",
"567 641 CURVE SMOOTH",
"397 812 OFFCURVE",
"74 644 OFFCURVE",
"114 399 CURVE SMOOTH",
"123 339 OFFCURVE",
"186 320 OFFCURVE",
"138 237 CURVE",
"30 260 OFFCURVE",
"-3 346 OFFCURVE",
"1 462 CURVE SMOOTH",
"8 648 OFFCURVE",
"169 778 OFFCURVE",
"332 797 CURVE SMOOTH",
"536 819 OFFCURVE",
"728 721 OFFCURVE",
"753 529 CURVE SMOOTH",
"784 312 OFFCURVE",
"662 77 OFFCURVE",
"442 94 CURVE SMOOTH",
"384 99 OFFCURVE",
"358 128 OFFCURVE",
"312 156 CURVE"
);
}
);
width = 757.77;
}
);
unicode = 0050;
},
{
glyphname = S;
lastChange = "2014-06-02 10:00:03 +0100";
layers = (
{
layerId = "B01CEB06-3497-4938-B984-CE672714131B";
name = Regular;
paths = (
{
closed = 1;
nodes = (
"606 527 OFFCURVE",
"401 237 OFFCURVE",
"267 46 CURVE SMOOTH",
"254 26 OFFCURVE",
"234 17 OFFCURVE",
"214 17 CURVE SMOOTH",
"0 17 LINE",
"0 45 OFFCURVE",
"0 52 OFFCURVE",
"0 94 CURVE SMOOTH",
"0 138 OFFCURVE",
"0 139 OFFCURVE",
"0 173 CURVE",
"0 173 OFFCURVE",
"78 168 OFFCURVE",
"129 168 CURVE SMOOTH",
"171 168 OFFCURVE",
"179 172 OFFCURVE",
"180 172 CURVE",
"196 184 OFFCURVE",
"400 474 OFFCURVE",
"533 665 CURVE SMOOTH",
"545 685 OFFCURVE",
"566 694 OFFCURVE",
"586 694 CURVE SMOOTH",
"711 694 LINE",
"712 736 OFFCURVE",
"716 767 OFFCURVE",
"722 772 CURVE",
"728 773 LINE",
"753 773 OFFCURVE",
"960 642 OFFCURVE",
"960 616 CURVE SMOOTH",
"960 611 OFFCURVE",
"958 606 OFFCURVE",
"949 598 CURVE SMOOTH",
"912 560 OFFCURVE",
"756 458 OFFCURVE",
"728 458 CURVE SMOOTH",
"728 458 LINE",
"723 458 LINE",
"718 461 OFFCURVE",
"715 467 OFFCURVE",
"711 506 CURVE SMOOTH",
"711 514 OFFCURVE",
"710 526 OFFCURVE",
"710 539 CURVE",
"686 541 OFFCURVE",
"697 542 OFFCURVE",
"666 542 CURVE SMOOTH",
"628 542 OFFCURVE",
"620 539 OFFCURVE",
"620 539 CURVE"
);
},
{
closed = 1;
nodes = (
"0 538 OFFCURVE",
"79 541 OFFCURVE",
"133 541 CURVE SMOOTH",
"173 541 OFFCURVE",
"180 539 OFFCURVE",
"181 539 CURVE",
"190 533 OFFCURVE",
"242 457 OFFCURVE",
"286 389 CURVE SMOOTH",
"292 381 LINE",
"382 506 LINE",
"267 665 LINE SMOOTH",
"254 685 OFFCURVE",
"234 694 OFFCURVE",
"214 694 CURVE SMOOTH",
"0 694 LINE SMOOTH",
"0 694 OFFCURVE",
"0 659 OFFCURVE",
"0 617 CURVE SMOOTH",
"0 573 OFFCURVE",
"0 538 OFFCURVE",
"0 538 CURVE SMOOTH"
);
},
{
closed = 1;
nodes = (
"960 89 OFFCURVE",
"958 85 OFFCURVE",
"949 77 CURVE SMOOTH",
"912 39 OFFCURVE",
"756 -63 OFFCURVE",
"728 -63 CURVE SMOOTH",
"728 -63 LINE",
"723 -62 LINE",
"718 -59 OFFCURVE",
"715 -55 OFFCURVE",
"711 -15 CURVE SMOOTH",
"711 -7 OFFCURVE",
"711 3 OFFCURVE",
"710 17 CURVE",
"586 17 LINE SMOOTH",
"566 17 OFFCURVE",
"545 26 OFFCURVE",
"533 46 CURVE SMOOTH",
"418 206 LINE",
"508 331 LINE",
"514 322 LINE SMOOTH",
"557 253 OFFCURVE",
"609 178 OFFCURVE",
"619 172 CURVE",
"620 172 OFFCURVE",
"628 169 OFFCURVE",
"666 169 CURVE SMOOTH",
"698 169 OFFCURVE",
"687 172 OFFCURVE",
"711 172 CURVE",
"712 214 OFFCURVE",
"716 245 OFFCURVE",
"722 250 CURVE",
"728 253 LINE",
"753 253 OFFCURVE",
"960 121 OFFCURVE",
"960 94 CURVE SMOOTH"
);
}
);
width = 960;
}
);
unicode = 0053;
},
{
glyphname = T;
lastChange = "2014-06-03 08:59:14 +0100";
layers = (
{
layerId = "B01CEB06-3497-4938-B984-CE672714131B";
name = Regular;
paths = (
{
closed = 1;
nodes = (
"1034 602 OFFCURVE",
"992 591 OFFCURVE",
"948 585 CURVE",
"993 612 OFFCURVE",
"1028 656 OFFCURVE",
"1044 707 CURVE",
"1002 681 OFFCURVE",
"956 663 OFFCURVE",
"905 654 CURVE",
"864 696 OFFCURVE",
"807 723 OFFCURVE",
"744 723 CURVE SMOOTH",
"622 723 OFFCURVE",
"523 624 OFFCURVE",
"523 502 CURVE SMOOTH",
"523 484 OFFCURVE",
"526 469 OFFCURVE",
"529 453 CURVE",
"347 462 OFFCURVE",
"183 549 OFFCURVE",
"75 683 CURVE",
"55 650 OFFCURVE",
"45 612 OFFCURVE",
"45 572 CURVE SMOOTH",
"45 495 OFFCURVE",
"84 427 OFFCURVE",
"142 388 CURVE",
"106 390 OFFCURVE",
"73 399 OFFCURVE",
"43 415 CURVE",
"43 415 OFFCURVE",
"43 414 OFFCURVE",
"43 412 CURVE SMOOTH",
"43 305 OFFCURVE",
"118 218 OFFCURVE",
"219 197 CURVE",
"201 191 OFFCURVE",
"183 190 OFFCURVE",
"162 190 CURVE SMOOTH",
"147 190 OFFCURVE",
"133 190 OFFCURVE",
"120 193 CURVE",
"148 106 OFFCURVE",
"230 41 OFFCURVE",
"326 39 CURVE",
"251 -19 OFFCURVE",
"156 -54 OFFCURVE",
"52 -54 CURVE SMOOTH",
"34 -54 OFFCURVE",
"18 -54 OFFCURVE",
"0 -52 CURVE",
"97 -114 OFFCURVE",
"213 -150 OFFCURVE",
"338 -150 CURVE SMOOTH",
"742 -150 OFFCURVE",
"965 185 OFFCURVE",
"965 477 CURVE SMOOTH",
"965 486 OFFCURVE",
"965 496 OFFCURVE",
"965 505 CURVE",
"1007 537 OFFCURVE",
"1044 576 OFFCURVE",
"1074 620 CURVE"
);
}
);
width = 1074;
}
);
unicode = 0054;
},
{
glyphname = one;
lastChange = "2014-06-02 10:00:12 +0100";
layers = (
{
layerId = "B01CEB06-3497-4938-B984-CE672714131B";
name = Regular;
paths = (
{
closed = 1;
nodes = (
"276 439 LINE",
"647 791 LINE",
"724 712 LINE",
"430 439 LINE",
"720 150 LINE",
"647 67 LINE"
);
}
);
width = 1000;
}
);
unicode = 0031;
},
{
glyphname = two;
lastChange = "2014-06-02 10:00:18 +0100";
layers = (
{
layerId = "B01CEB06-3497-4938-B984-CE672714131B";
name = Regular;
paths = (
{
closed = 1;
nodes = (
"510 586 LINE",
"862 215 LINE",
"784 138 LINE",
"510 432 LINE",
"221 142 LINE",
"138 215 LINE"
);
}
);
width = 1000;
}
);
unicode = 0032;
},
{
glyphname = three;
lastChange = "2014-06-02 10:00:24 +0100";
layers = (
{
layerId = "B01CEB06-3497-4938-B984-CE672714131B";
name = Regular;
paths = (
{
closed = 1;
nodes = (
"724 410 LINE",
"353 58 LINE",
"276 137 LINE",
"570 410 LINE",
"280 699 LINE",
"353 782 LINE"
);
}
);
width = 1000;
}
);
unicode = 0033;
},
{
glyphname = four;
lastChange = "2014-06-02 10:00:27 +0100";
layers = (
{
layerId = "B01CEB06-3497-4938-B984-CE672714131B";
name = Regular;
paths = (
{
closed = 1;
nodes = (
"490 125 LINE",
"138 496 LINE",
"216 573 LINE",
"490 279 LINE",
"779 569 LINE",
"862 496 LINE"
);
}
);
width = 1000;
}
);
unicode = 0034;
},
{
glyphname = hyphen;
lastChange = "2014-06-12 14:41:36 +0100";
layers = (
{
layerId = "B01CEB06-3497-4938-B984-CE672714131B";
name = Regular;
paths = (
{
closed = 1;
nodes = (
"562 390 LINE",
"0 391 LINE",
"0 319 LINE",
"562 318 LINE"
);
}
);
width = 562;
}
);
unicode = 002D;
},
{
glyphname = plus;
lastChange = "2014-06-12 14:39:57 +0100";
layers = (
{
layerId = "B01CEB06-3497-4938-B984-CE672714131B";
name = Regular;
paths = (
{
closed = 1;
nodes = (
"562 390 LINE",
"317 390 LINE",
"317 635 LINE",
"245 635 LINE",
"245 391 LINE",
"0 391 LINE",
"0 319 LINE",
"245 319 LINE",
"245 74 LINE",
"318 74 LINE",
"318 319 LINE",
"562 318 LINE"
);
}
